HIERARCHY
ROOT Hips
{
 OFFSET 0.000000 0.000000 0.000000
 CHANNELS 6 Xposition Yposition Zposition Yrotation Xrotation Zrotation
 JOINT Chest
 {
  OFFSET 0.000000 9.585900 0.002600
  CHANNELS 3 Yrotation Xrotation Zrotation
  JOINT Chest2
  {
   OFFSET 0.000000 9.601200 -0.005300
   CHANNELS 3 Yrotation Xrotation Zrotation
   JOINT Chest3
   {
    OFFSET 0.000000 9.561800 0.000000
    CHANNELS 3 Yrotation Xrotation Zrotation
    JOINT Chest4
    {
     OFFSET 0.000000 9.552100 0.000000
     CHANNELS 3 Yrotation Xrotation Zrotation
     JOINT Neck
     {
      OFFSET 0.000000 14.453000 0.000000
      CHANNELS 3 Yrotation Xrotation Zrotation
      JOINT Head
      {
       OFFSET 0.000000 8.936500 -0.011300
       CHANNELS 3 Yrotation Xrotation Zrotation
       End Site
       {
        OFFSET 0.000000 17.073600 -0.006000
       }
      }
     }
     JOINT RightCollar
     {
      OFFSET -2.921100 9.558500 0.000000
      CHANNELS 3 Yrotation Xrotation Zrotation
      JOINT RightShoulder
      {
       OFFSET -13.519700 0.000000 0.000000
       CHANNELS 3 Yrotation Xrotation Zrotation
       JOINT RightElbow
       {
        OFFSET 0.000000 -29.696600 0.000000
        CHANNELS 3 Yrotation Xrotation Zrotation
        JOINT RightWrist
        {
         OFFSET 0.000000 -24.004700 0.000000
         CHANNELS 3 Yrotation Xrotation Zrotation
         End Site
         {
          OFFSET 0.000000 -17.728500 0.000000
         }
        }
       }
      }
     }
     JOINT LeftCollar
     {
      OFFSET 2.921100 9.558500 0.000000
      CHANNELS 3 Yrotation Xrotation Zrotation
      JOINT LeftShoulder
      {
       OFFSET 13.519700 0.000000 0.000000
       CHANNELS 3 Yrotation Xrotation Zrotation
       JOINT LeftElbow
       {
        OFFSET 0.000000 -29.696600 0.000000
        CHANNELS 3 Yrotation Xrotation Zrotation
        JOINT LeftWrist
        {
         OFFSET 0.000000 -24.004700 0.000000
         CHANNELS 3 Yrotation Xrotation Zrotation
         End Site
         {
          OFFSET 0.000000 -17.728500 0.000000
         }
        }
       }
      }
     }
    }
   }
  }
 }
 JOINT RightHip
 {
  OFFSET -7.771700 -0.012900 -0.001300
  CHANNELS 3 Yrotation Xrotation Zrotation
  JOINT RightKnee
  {
   OFFSET 0.000000 -40.869800 0.001200
   CHANNELS 3 Yrotation Xrotation Zrotation
   JOINT RightAnkle
   {
    OFFSET 0.000000 -39.717900 0.002100
    CHANNELS 3 Yrotation Xrotation Zrotation
    JOINT RightToe
    {
     OFFSET 0.000000 -4.965400 11.033500
     CHANNELS 3 Yrotation Xrotation Zrotation
     End Site
     {
      OFFSET 0.000000 -1.423100 5.872300
     }
    }
   }
  }
 }
 JOINT LeftHip
 {
  OFFSET 7.771700 -0.012900 -0.001300
  CHANNELS 3 Yrotation Xrotation Zrotation
  JOINT LeftKnee
  {
   OFFSET 0.000000 -40.869800 0.001200
   CHANNELS 3 Yrotation Xrotation Zrotation
   JOINT LeftAnkle
   {
    OFFSET 0.000000 -39.717900 0.002100
    CHANNELS 3 Yrotation Xrotation Zrotation
    JOINT LeftToe
    {
     OFFSET 0.000000 -4.965400 11.033500
     CHANNELS 3 Yrotation Xrotation Zrotation
     End Site
     {
      OFFSET 0.000000 -1.423100 5.872300
     }
    }
   }
  }
 }
}
MOTION
Frames: 15
Frame Time: 0.008333
0.000000 85.388000 0.000000 0.000000 -5.767877 0.000000 0.000000 11.653817 0.000000 0.000000 -5.885947 0.000000 0.000000 -0.000000 0.000000 0.000000 -0.000000 0.000000 0.000000 12.528835 0.000000 0.000000 0.711642 0.000000 0.000000 -0.000000 0.000000 0.000000 0.000000 -90.000000 0.000000 -2.309062 0.000000 0.000000 2.309062 0.000000 0.000000 -0.000000 0.000000 0.000000 -0.000000 90.000000 0.000000 -2.309062 0.000000 0.000000 2.309062 0.000000 0.000000 8.520406 0.000000 0.000000 1.905762 0.000000 -0.000000 -4.658285 0.000000 0.000000 -0.000000 0.000000 0.000000 8.520406 0.000000 0.000000 1.905762 0.000000 -0.000000 -4.658285 0.000000 0.000000 -0.000000 0.000000
-41.449481 44.285376 34.313940 178.803441 -38.956825 -0.663620 0.497202 22.441328 2.967301 -0.043687 3.160388 0.455361 -0.061864 5.139083 0.737125 0.113077 18.880867 2.774241 -3.080702 15.762809 -3.951500 -2.377148 -9.091319 -3.478708 13.794870 -2.609587 -6.132447 12.157442 -25.286199 -26.785984 100.697809 -34.659363 -99.733696 10.124935 -13.661883 -78.090066 -22.485724 -3.680943 -2.794495 -5.251997 -17.818543 4.502741 -111.517966 -23.862479 123.247319 -12.639121 -7.867541 67.633588 -1.787823 -52.714734 5.821378 -155.632258 71.569904 -153.823278 -13.106542 -24.846226 8.774511 0.013083 -0.485888 0.016206 3.357083 -42.545309 -6.353282 173.162359 63.908881 174.422005 -1.853732 -35.077518 2.870279 0.080408 0.362267 0.043172
-41.452787 44.285475 34.322790 178.824638 -39.151351 -0.670640 0.493399 22.504939 2.965402 -0.044937 3.183896 0.457028 -0.074425 5.229320 0.739101 0.121924 18.891242 2.774147 -3.147153 15.773793 -3.948470 -2.544389 -9.049539 -3.440825 13.873581 -2.644840 -6.163710 12.492854 -25.487514 -26.975063 99.931640 -34.403428 -98.964485 10.205879 -13.731517 -78.266884 -22.544511 -3.713351 -2.813826 -5.446195 -18.113322 4.627410 -110.788339 -23.821755 122.489771 -12.582279 -7.868255 67.830292 -1.785944 -52.532764 5.813186 -155.609207 71.566359 -153.808507 -13.140184 -24.831978 8.790111 0.012168 -0.486280 0.016369 3.343163 -42.360033 -6.350373 173.156654 63.916046 174.418239 -1.848990 -35.062172 2.862549 0.079808 0.361869 0.046125
-41.458049 44.284949 34.334905 178.809972 -39.364273 -0.645997 0.510630 22.586045 2.949261 -0.046191 3.206569 0.458747 -0.064962 5.210903 0.743090 0.113378 18.982866 2.767590 -3.212056 15.815195 -3.937026 -2.684964 -8.992971 -3.412605 13.957006 -2.664442 -6.176629 12.823014 -25.684497 -27.168493 99.124233 -34.164652 -98.125541 10.279050 -13.801491 -78.450860 -22.584117 -3.698160 -2.823575 -5.646912 -18.450650 4.729616 -110.037170 -23.821369 121.653175 -12.527022 -7.881232 67.972509 -1.753210 -52.329496 5.792035 -155.591275 71.561775 -153.802861 -13.140626 -24.825805 8.792275 0.034229 -0.493544 0.020506 3.361897 -42.156186 -6.356634 173.152443 63.926009 174.415426 -1.864691 -35.067293 2.862176 0.093727 0.385483 0.052971
-41.461641 44.280823 34.353958 178.835280 -39.555876 -0.658846 0.498126 22.646631 2.943989 -0.047665 3.227874 0.460313 -0.064159 5.224761 0.744476 0.105305 19.061916 2.768592 -3.305055 15.849238 -3.939573 -2.758906 -8.933530 -3.400695 14.057968 -2.703592 -6.200514 13.141986 -25.889408 -27.367110 98.284192 -33.929797 -97.221456 10.342386 -13.873821 -78.632086 -22.658268 -3.758538 -2.853714 -5.816957 -18.758608 4.834410 -109.247202 -23.838789 120.750134 -12.490449 -7.905023 68.015218 -1.786845 -52.150617 5.807970 -155.544866 71.567638 -153.785196 -13.145896 -24.825816 8.800265 0.041278 -0.485233 0.020842 3.345586 -41.986779 -6.350870 173.146638 63.937767 174.412555 -1.862912 -35.039780 2.861424 0.090781 0.391765 0.052787
-41.465170 44.276951 34.374940 178.863030 -39.753408 -0.674070 0.479126 22.712404 2.937923 -0.049417 3.247306 0.461451 -0.066875 5.254452 0.746214 0.103278 19.138741 2.770914 -3.384974 15.880093 -3.943972 -2.814189 -8.864741 -3.398638 14.163717 -2.759930 -6.224904 13.450148 -26.101021 -27.568720 97.431195 -33.701365 -96.274497 10.407295 -13.938831 -78.802724 -22.743865 -3.847667 -2.893553 -6.008367 -19.067902 4.934050 -108.414982 -23.846126 119.804847 -12.475475 -7.930602 67.961718 -1.833388 -51.964991 5.834386 -155.477388 71.570785 -153.757148 -13.142045 -24.827949 8.811803 0.056433 -0.479306 0.021271 3.323606 -41.812739 -6.342915 173.128669 63.949984 174.399214 -1.868341 -35.012386 2.857803 0.091917 0.397720 0.052386
-41.468080 44.272140 34.399007 178.891281 -39.938829 -0.692655 0.457170 22.765021 2.933159 -0.051660 3.323167 0.464747 -0.068999 5.246714 0.745985 0.095677 19.165175 2.765346 -3.498250 15.972624 -3.959427 -2.799628 -8.815390 -3.406087 14.275351 -2.794993 -6.230295 13.747831 -26.316841 -27.762864 96.580795 -33.485923 -95.309829 10.485058 -13.992492 -78.940988 -22.817724 -3.901569 -2.945371 -6.217689 -19.388804 5.024879 -107.575337 -23.835305 118.853343 -12.475127 -7.964898 67.863540 -1.894281 -51.791858 5.872666 -155.401863 71.573686 -153.724022 -13.139267 -24.839106 8.822269 0.069870 -0.499598 0.025797 3.296075 -41.659823 -6.331290 173.116411 63.957734 174.390854 -1.872192 -34.969208 2.850910 0.095941 0.390772 0.052908
-41.473871 44.267020 34.424930 178.889430 -40.114927 -0.672703 0.447449 22.809011 2.906279 -0.053787 3.311050 0.464070 -0.069072 5.369300 0.751126 0.068247 19.088231 2.748205 -3.499322 16.086835 -3.962160 -2.843422 -8.713712 -3.414984 14.397298 -2.776319 -6.210823 14.027871 -26.541550 -27.934900 95.744337 -33.277260 -94.339582 10.571606 -14.049458 -79.014875 -22.884956 -3.904732 -3.022481 -6.396566 -19.698622 5.117712 -106.778063 -23.808575 117.938890 -12.484017 -8.009997 67.771546 -1.959281 -51.644813 5.935149 -155.258397 71.556444 -153.657937 -13.179941 -24.820748 8.850675 0.070388 -0.512978 0.027113 3.308704 -41.507306 -6.345524 173.088210 63.972854 174.365774 -1.886982 -34.936727 2.848430 0.101581 0.393750 0.054153
-41.483023 44.260918 34.453152 178.927879 -40.273652 -0.655815 0.393060 22.838638 2.851595 -0.055531 3.297215 0.463269 -0.066095 5.420545 0.755022 0.047846 19.127237 2.737988 -3.500170 16.155360 -3.965229 -2.858816 -8.612418 -3.432879 14.511786 -2.800423 -6.199105 14.270165 -26.783634 -28.073145 94.949249 -33.068578 -93.373377 10.659250 -14.114141 -79.041970 -22.964076 -3.950917 -3.088703 -6.531752 -19.995468 5.222338 -106.054519 -23.762690 117.095194 -12.493155 -8.058604 67.716190 -1.971955 -51.505087 5.910476 -155.134329 71.554069 -153.576018 -13.234991 -24.824187 8.886090 0.072208 -0.503090 0.024463 3.314357 -41.383345 -6.397405 173.061349 63.997331 174.342646 -1.899730 -34.870465 2.844905 0.107159 0.378842 0.054950
-41.482015 44.253386 34.484347 178.893563 -40.411159 -0.649242 0.416103 22.848790 2.855645 -0.054168 3.367798 0.468627 -0.073503 5.387940 0.752746 0.034999 19.163242 2.725350 -3.520783 16.259961 -3.992543 -2.827776 -8.557336 -3.437385 14.626327 -2.821245 -6.181381 14.456747 -27.048563 -28.173070 94.218748 -32.857272 -92.423554 10.735202 -14.172102 -79.071474 -23.043108 -3.990757 -3.154385 -6.632919 -20.278370 5.340575 -105.415421 -23.700146 116.341067 -12.492866 -8.101629 67.728986 -1.980042 -51.381863 5.958699 -154.931741 71.582888 -153.418047 -13.200898 -24.806068 8.907116 0.037021 -0.486117 0.009765 3.327355 -41.275003 -6.368604 173.039483 64.010824 174.329182 -1.903353 -34.834583 2.838658 0.103494 0.379056 0.052617
-41.479780 44.249892 34.511407 178.923490 -40.578536 -0.687148 0.392327 22.891457 2.861250 -0.058056 3.354685 0.465767 -0.082469 5.371361 0.747189 0.030849 19.268118 2.719893 -3.502350 16.328066 -4.002071 -2.806348 -8.484330 -3.451995 14.740021 -2.840305 -6.160062 14.591875 -27.328356 -28.243029 93.546220 -32.639541 -91.499972 10.782236 -14.220701 -79.134841 -23.122559 -4.019479 -3.213051 -6.726531 -20.547495 5.470143 -104.854459 -23.631385 115.685436 -12.477104 -8.124356 67.822718 -2.036960 -51.225065 6.000875 -154.842324 71.597335 -153.357990 -13.159898 -24.848379 8.913269 0.023919 -0.442511 0.001411 3.286433 -41.134026 -6.331934 173.014209 64.027106 174.312584 -1.895254 -34.781560 2.828235 0.090632 0.362481 0.045758
-41.484805 44.248232 34.536267 178.909513 -40.758371 -0.648917 0.382649 22.947430 2.814492 -0.061764 3.343493 0.461836 -0.086423 5.401370 0.745171 0.033941 19.349788 2.723651 -3.488652 16.359256 -4.018624 -2.788778 -8.434081 -3.454975 14.839592 -2.880019 -6.152036 14.701174 -27.601979 -28.301855 92.912601 -32.422384 -90.616758 10.798902 -14.268910 -79.227048 -23.213570 -4.059789 -3.264936 -6.841681 -20.801958 5.609582 -104.354458 -23.565207 115.131131 -12.441744 -8.130406 67.969473 -2.046754 -51.084073 6.028435 -154.725248 71.566648 -153.294087 -13.190022 -24.752522 8.915681 0.089247 -0.536115 0.028011 3.317667 -40.974248 -6.356103 172.987478 64.047530 174.291037 -1.927844 -34.759284 2.826004 0.108458 0.381174 0.056506
-41.487529 44.248391 34.558905 178.922269 -40.950606 -0.637976 0.358430 23.017971 2.777098 -0.063144 3.359687 0.460810 -0.085646 5.465652 0.752409 0.026518 19.367897 2.716342 -3.466210 16.378461 -4.035449 -2.753863 -8.392151 -3.465615 14.934011 -2.918271 -6.143246 14.804527 -27.852124 -28.359018 92.310814 -32.210395 -89.801296 10.799622 -14.311401 -79.316957 -23.300899 -4.088085 -3.312940 -6.990232 -21.039360 5.754758 -103.906451 -23.510551 114.677221 -12.395553 -8.137360 68.118847 -2.052696 -50.911520 6.029245 -154.645575 71.557823 -153.242601 -13.207280 -24.740709 8.926369 0.104044 -0.546068 0.033781 3.318697 -40.795047 -6.365340 172.958937 64.072839 174.266603 -1.938738 -34.730810 2.820318 0.108200 0.390592 0.059099
-41.482863 44.243608 34.586840 178.880380 -41.095557 -0.632830 0.394714 23.044957 2.783229 -0.064065 3.375959 0.459938 -0.088827 5.469976 0.746786 0.020118 19.421909 2.708855 -3.437546 16.418055 -4.026146 -2.696128 -8.370733 -3.498545 15.027150 -2.936212 -6.118696 14.911560 -28.073282 -28.410830 91.738342 -31.991111 -89.073933 10.796190 -14.336785 -79.387878 -23.375102 -4.086717 -3.351577 -7.160192 -21.263057 5.899141 -103.517168 -23.468244 114.315196 -12.352748 -8.142994 68.239735 -2.064611 -50.783757 6.095512 -154.499109 71.584103 -153.137270 -13.183259 -24.709743 8.941885 0.074405 -0.523566 0.020028 3.323605 -40.672144 -6.314022 172.965300 64.085775 174.272755 -1.935463 -34.704444 2.811331 0.101975 0.391791 0.060529
-41.479201 44.241742 34.610275 178.897202 -41.266157 -0.657313 0.385993 23.101092 2.781694 -0.064903 3.392161 0.459151 -0.091409 5.475596 0.740169 0.002875 19.442153 2.667786 -3.392514 16.486415 -3.986329 -2.655047 -8.377474 -3.516530 15.119798 -2.927772 -6.059603 15.023181 -28.266778 -28.449168 91.197637 -31.750105 -88.434869 10.789081 -14.347318 -79.451284 -23.429670 -4.041006 -3.369191 -7.330628 -21.480197 6.039860 -103.197457 -23.428986 114.029835 -12.310563 -8.135297 68.340702 -2.092582 -50.620421 6.121264 -154.449463 71.603252 -153.102978 -13.164742 -24.708523 8.946246 0.049408 -0.526107 0.012389 3.284997 -40.531214 -6.265341 172.984299 64.093225 174.284651 -1.943089 -34.658153 2.810548 0.104879 0.376602 0.061488
